<svg width="20" height="20" viewBox="0 0 20 20" fill="none" xmlns="http://www.w3.org/2000/svg">
<path d="M7 17L1.79 18.737C1.69973 18.7671 1.60358 18.7754 1.5095 18.761C1.41542 18.7467 1.32611 18.7101 1.24893 18.6544C1.17175 18.5988 1.10893 18.5255 1.06565 18.4408C1.02236 18.356 0.999861 18.2622 1 18.167V3.433C1.00003 3.30714 1.03963 3.18447 1.11321 3.08236C1.18679 2.98025 1.29062 2.90386 1.41 2.864L7 1M7 17L13 19M7 17V1M7 1L13 3M13 19L18.59 17.137C18.7095 17.0971 18.8135 17.0205 18.8871 16.9182C18.9607 16.8159 19.0002 16.693 19 16.567V1.832C19 1.73692 18.9774 1.6432 18.934 1.55857C18.8907 1.47394 18.8278 1.40083 18.7507 1.34526C18.6735 1.28969 18.5843 1.25325 18.4902 1.23895C18.3962 1.22465 18.3002 1.23289 18.21 1.263L13 3M13 19V3" stroke="#111111" stroke-width="1.5" stroke-linecap="round" stroke-linejoin="round"/>
</svg>
