<svg width="24" height="24" viewBox="0 0 24 24" fill="none" xmlns="http://www.w3.org/2000/svg">
<path d="M19.887 12.5311L21.243 13.7386C21.4934 13.9475 21.6607 14.2392 21.7146 14.5609C21.7685 14.8825 21.7055 15.2129 21.537 15.4921L19.902 18.2851C19.7751 18.4989 19.594 18.6753 19.377 18.7966C19.1574 18.9181 18.9109 18.9825 18.66 18.9841C18.5043 18.985 18.3494 18.9617 18.201 18.9151L16.4655 18.3421C16.1615 18.5371 15.8455 18.7116 15.5175 18.8656L15.153 20.6251C15.0855 20.9487 14.9053 21.2379 14.6445 21.4411C14.3803 21.6478 14.0528 21.757 13.7175 21.7501H10.332C9.99658 21.757 9.6691 21.6478 9.40496 21.4411C9.14468 21.2377 8.96502 20.9485 8.89796 20.6251L8.53196 18.8656C8.20826 18.7095 7.89419 18.5342 7.59146 18.3406L5.84996 18.9151C5.70146 18.9617 5.54661 18.985 5.39096 18.9841C5.14055 18.9823 4.89457 18.9178 4.67546 18.7966C4.45862 18.6757 4.27751 18.4998 4.15046 18.2866L2.45696 15.4921C2.2809 15.2103 2.21363 14.8741 2.26775 14.5463C2.32187 14.2185 2.49368 13.9217 2.75096 13.7116L4.10546 12.0001V11.4691L2.74946 10.2616C2.49905 10.0526 2.33174 9.7609 2.27781 9.43925C2.22388 9.1176 2.2869 8.78727 2.45546 8.50807L4.14896 5.71507C4.27581 5.50127 4.45693 5.3248 4.67396 5.20357C4.89307 5.08232 5.13905 5.01786 5.38946 5.01607C5.54371 5.00634 5.69853 5.0205 5.84846 5.05807L7.55546 5.65807C7.86046 5.46307 8.17646 5.28857 8.50346 5.13457L8.86946 3.37507C8.93652 3.05162 9.11618 2.76246 9.37646 2.55907C9.6406 2.35229 9.96808 2.24313 10.3035 2.25007H13.6605C13.9958 2.24313 14.3233 2.35229 14.5875 2.55907C14.85 2.76457 15.03 3.05407 15.0945 3.37507L15.4605 5.13457C15.7855 5.28957 16.099 5.46457 16.401 5.65957L18.144 5.08657C18.3374 5.02364 18.5418 5.00154 18.7442 5.02168C18.9467 5.04182 19.1427 5.10376 19.32 5.20357C19.5375 5.32657 19.7175 5.50357 19.845 5.71357L21.537 8.50807C21.7154 8.7874 21.7861 9.12211 21.7358 9.44974C21.6856 9.77737 21.5179 10.0755 21.264 10.2886L19.887 11.4616V12.5311Z" stroke="#111111" stroke-width="1.2"/>
<path d="M15.75 12C15.75 12.9946 15.3549 13.9484 14.6517 14.6517C13.9484 15.3549 12.9946 15.75 12 15.75C11.0054 15.75 10.0516 15.3549 9.34835 14.6517C8.64509 13.9484 8.25 12.9946 8.25 12C8.25 11.0054 8.64509 10.0516 9.34835 9.34835C10.0516 8.64509 11.0054 8.25 12 8.25C12.9946 8.25 13.9484 8.64509 14.6517 9.34835C15.3549 10.0516 15.75 11.0054 15.75 12Z" stroke="#111111" stroke-width="1.2"/>
</svg>
