<svg width="66" height="30" viewBox="0 0 66 30" fill="none" xmlns="http://www.w3.org/2000/svg">
<path d="M2.16 16.976H19.296C20.528 16.976 21.456 17.2 22.08 17.648C22.72 18.08 23.04 18.776 23.04 19.736C23.04 20.696 22.72 21.408 22.08 21.872C21.456 22.32 20.528 22.544 19.296 22.544H5.424C5.152 22.544 4.936 22.608 4.776 22.736C4.632 22.864 4.56 23.048 4.56 23.288C4.56 23.528 4.632 23.72 4.776 23.864C4.936 24.008 5.152 24.08 5.424 24.08H23.04V26.144H5.664C4.432 26.144 3.496 25.912 2.856 25.448C2.232 25 1.92 24.296 1.92 23.336C1.92 22.376 2.232 21.68 2.856 21.248C3.496 20.8 4.432 20.576 5.664 20.576H19.536C19.808 20.576 20.016 20.504 20.16 20.36C20.32 20.216 20.4 20.024 20.4 19.784C20.4 19.544 20.32 19.36 20.16 19.232C20.016 19.104 19.808 19.04 19.536 19.04H2.16V16.976ZM18.72 6.416V9.296H22.8V11.456H2.16V9.296H6.24V6.416H2.16V4.256H22.8V6.416H18.72ZM22.8 15.32H2.16V13.16H22.8V15.32ZM16.08 9.296V6.416H8.88V9.296H16.08ZM27.3609 4.256H36.6009C37.2089 4.256 37.7449 4.352 38.2089 4.544C38.6889 4.72 39.0809 4.968 39.3849 5.288C39.7049 5.608 39.9449 5.984 40.1049 6.416C40.2649 6.832 40.3449 7.28 40.3449 7.76C40.3449 8.24 40.2649 8.696 40.1049 9.128C39.9449 9.544 39.7049 9.912 39.3849 10.232C39.0809 10.552 38.6889 10.808 38.2089 11C37.7449 11.176 37.2089 11.264 36.6009 11.264H31.1049C30.7209 11.264 30.4009 11.384 30.1449 11.624C29.8889 11.848 29.7609 12.224 29.7609 12.752C29.7609 13.28 29.8889 13.664 30.1449 13.904C30.4009 14.128 30.7209 14.24 31.1049 14.24H44.8809V4.256H47.5209V16.304H30.8649C30.2569 16.304 29.7129 16.216 29.2329 16.04C28.7689 15.848 28.3769 15.592 28.0569 15.272C27.7529 14.952 27.5209 14.584 27.3609 14.168C27.2009 13.736 27.1209 13.28 27.1209 12.8C27.1209 12.32 27.2009 11.872 27.3609 11.456C27.5209 11.024 27.7529 10.648 28.0569 10.328C28.3769 10.008 28.7689 9.76 29.2329 9.584C29.7129 9.392 30.2569 9.296 30.8649 9.296H36.3609C36.7449 9.296 37.0649 9.184 37.3209 8.96C37.5769 8.72 37.7049 8.336 37.7049 7.808C37.7049 7.28 37.5769 6.904 37.3209 6.68C37.0649 6.44 36.7449 6.32 36.3609 6.32H27.3609V4.256ZM44.8809 20.384H27.3609V18.224H47.5209V26.144H44.8809V20.384Z" fill="#111111"/>
<rect x="54" y="6" width="12" height="2.625" rx="1.3125" fill="#111111"/>
<rect x="52.5" y="12" width="10.5" height="2.625" rx="1.3125" fill="#111111"/>
</svg>
