<svg width="32" height="39" viewBox="0 0 32 39" fill="none" xmlns="http://www.w3.org/2000/svg">
<path d="M16 6.1875C15.2954 6.1875 14.6066 6.39644 14.0208 6.78789C13.4349 7.17934 12.9783 7.73573 12.7087 8.38669C12.439 9.03765 12.3685 9.75395 12.506 10.445C12.6434 11.1361 12.9827 11.7708 13.4809 12.2691C13.9792 12.7673 14.6139 13.1066 15.305 13.244C15.996 13.3815 16.7123 13.311 17.3633 13.0413C18.0143 12.7717 18.5707 12.3151 18.9621 11.7292C19.3536 11.1434 19.5625 10.4546 19.5625 9.75C19.5625 8.80517 19.1872 7.89903 18.5191 7.23093C17.851 6.56283 16.9448 6.1875 16 6.1875ZM16 12.1875C15.5179 12.1875 15.0466 12.0445 14.6458 11.7767C14.245 11.5089 13.9325 11.1282 13.748 10.6828C13.5636 10.2374 13.5153 9.7473 13.6093 9.27447C13.7034 8.80164 13.9355 8.36732 14.2764 8.02643C14.6173 7.68554 15.0516 7.45339 15.5245 7.35934C15.9973 7.26528 16.4874 7.31356 16.9328 7.49804C17.3782 7.68253 17.7589 7.99495 18.0267 8.3958C18.2945 8.79664 18.4375 9.26791 18.4375 9.75C18.4375 10.3965 18.1807 11.0165 17.7236 11.4736C17.2665 11.9307 16.6465 12.1875 16 12.1875ZM16 1.6875C13.8625 1.68998 11.8132 2.54022 10.3017 4.05169C8.79022 5.56317 7.93998 7.61245 7.9375 9.75C7.9375 12.6478 9.28188 15.7256 11.8253 18.6506C12.9733 19.9773 14.2653 21.1722 15.6775 22.2131C15.772 22.2793 15.8846 22.3148 16 22.3148C16.1154 22.3148 16.228 22.2793 16.3225 22.2131C17.7347 21.1722 19.0267 19.9773 20.1747 18.6506C22.7181 15.7256 24.0625 12.6506 24.0625 9.75C24.06 7.61245 23.2098 5.56317 21.6983 4.05169C20.1868 2.54022 18.1375 1.68998 16 1.6875ZM16 21.0478C14.5938 19.9622 9.0625 15.3394 9.0625 9.75C9.0625 7.91006 9.79341 6.14548 11.0944 4.84445C12.3955 3.54341 14.1601 2.8125 16 2.8125C17.8399 2.8125 19.6045 3.54341 20.9056 4.84445C22.2066 6.14548 22.9375 7.91006 22.9375 9.75C22.9375 15.3394 17.4062 19.9622 16 21.0478Z" fill="#FF6B35"/>
<path d="M14.9062 29.3438V30.0469H13.6367V31.5605H14.8672V32.2734H8.45117V31.5605H9.69141V30.0469H8.41211V29.3438H14.9062ZM15.6582 32.918V33.6504H7.67969V32.918H15.6582ZM14.6523 34.334V36.3359H9.55469V37.0391H14.8965V37.7422H8.64648V35.6816H13.7344V35.0273H8.63672V34.334H14.6523ZM10.6094 31.5605H12.709V30.0469H10.6094V31.5605ZM23.5781 29.0898V34.4316H22.6504V29.0898H23.5781ZM23.5781 34.8809V37.8301H22.6504V35.6426H17.6504V34.8809H23.5781ZM20.7852 29.5977V32.0977H17.6895V33.2207C19.2178 33.2158 20.3457 33.1621 21.6738 32.9668L21.791 33.7188C20.3652 33.9434 19.1641 33.9824 17.5137 33.9824H16.7812V31.375H19.8672V30.3496H16.7617V29.5977H20.7852Z" fill="#FF6B35"/>
</svg>

