<svg width="32" height="39" viewBox="0 0 32 39" fill="none" xmlns="http://www.w3.org/2000/svg">
<path d="M8.28571 20.7H13.0326V14.1001C13.0326 13.8028 13.1324 13.5537 13.3321 13.3526C13.531 13.1507 13.7774 13.0497 14.0714 13.0497H17.9286C18.2226 13.0497 18.4694 13.1507 18.6691 13.3526C18.868 13.5537 18.9674 13.8028 18.9674 14.1001V20.7H23.7143V9.40071C23.7143 9.26725 23.6856 9.14592 23.6281 9.03672C23.5707 8.92753 23.4923 8.8322 23.3929 8.75073L16.4706 3.47546C16.3386 3.35933 16.1817 3.30127 16 3.30127C15.8183 3.30127 15.6619 3.35933 15.5307 3.47546L8.60714 8.75073C8.50857 8.83393 8.43014 8.92926 8.37186 9.03672C8.31357 9.14419 8.28486 9.26552 8.28571 9.40071V20.7ZM7 20.7V9.40071C7 9.06792 7.07371 8.7529 7.22114 8.45564C7.36857 8.15838 7.57171 7.91355 7.83057 7.72116L14.7541 2.41989C15.1167 2.13996 15.5307 2 15.9961 2C16.4616 2 16.8781 2.13996 17.2459 2.41989L24.1694 7.71986C24.4291 7.91225 24.6323 8.15751 24.7789 8.45564C24.9263 8.7529 25 9.06792 25 9.40071V20.7C25 21.0484 24.8719 21.3522 24.6156 21.6113C24.3593 21.8704 24.0589 22 23.7143 22H18.7206C18.4257 22 18.1789 21.8995 17.98 21.6984C17.7811 21.4965 17.6817 21.2469 17.6817 20.9496V14.351H14.3183V20.9496C14.3183 21.2478 14.2189 21.4973 14.02 21.6984C13.8211 21.8995 13.5747 22 13.2807 22H8.28571C7.94114 22 7.64071 21.8704 7.38443 21.6113C7.12814 21.3522 7 21.0484 7 20.7Z" fill="#333333"/>
<path d="M19.0029 35.1934V37.7227H12.958V35.1934H19.0029ZM13.876 35.9062V37.0098H18.1045V35.9062H13.876ZM19.5303 29.7734V30.4863H12.4111V29.7734H15.5264V28.9629H16.4541V29.7734H19.5303ZM15.9854 30.7988C17.8311 30.7988 18.8564 31.2188 18.8564 32.0391C18.8564 32.7861 18.002 33.2012 16.4541 33.2695V33.8652H19.9795V34.5977H12.001V33.8652H15.5264V33.2695C13.9785 33.2012 13.1045 32.7861 13.1143 32.0391C13.1045 31.2188 14.1494 30.7988 15.9854 30.7988ZM15.9854 31.4336C14.7646 31.4434 14.1006 31.6387 14.1006 32.0391C14.1006 32.4297 14.7646 32.6445 15.9854 32.6445C17.2158 32.6445 17.8701 32.4297 17.8701 32.0391C17.8701 31.6387 17.2158 31.4434 15.9854 31.4336Z" fill="#333333"/>
</svg>
