<svg width="32" height="39" viewBox="0 0 32 39" fill="none" xmlns="http://www.w3.org/2000/svg">
<path d="M23.618 21.25C23.618 17.648 19.602 14.72 16 14.72C12.398 14.72 8.38196 17.648 8.38196 21.25M16 11.456C17.1544 11.456 18.2616 10.9974 19.078 10.181C19.8943 9.36469 20.353 8.25749 20.353 7.103C20.353 5.94851 19.8943 4.84131 19.078 4.02496C18.2616 3.20862 17.1544 2.75 16 2.75C14.8455 2.75 13.7383 3.20862 12.9219 4.02496C12.1056 4.84131 11.647 5.94851 11.647 7.103C11.647 8.25749 12.1056 9.36469 12.9219 10.181C13.7383 10.9974 14.8455 11.456 16 11.456Z" stroke="#FF6B35" stroke-width="1.2" stroke-linecap="round" stroke-linejoin="round"/>
<path d="M9.13965 29.9297H10.4482L12.6846 35.4082H12.7725L15.0088 29.9297H16.3174V37H15.292V31.8926H15.2236L13.1533 36.9902H12.3037L10.2236 31.8828H10.165V37H9.13965V29.9297ZM17.2158 29.9297H18.4365L20.2725 33.1328H20.3506L22.1963 29.9297H23.417L20.8486 34.2266V37H19.7744V34.2266L17.2158 29.9297Z" fill="#FF6B35"/>
</svg>
