<svg width="32" height="39" viewBox="0 0 32 39" fill="none" xmlns="http://www.w3.org/2000/svg">
<path d="M21.5999 21.9451C21.2247 21.9446 20.8637 21.8016 20.5899 21.5451L16.3389 17.6451C16.2465 17.5593 16.125 17.5117 15.9989 17.5117C15.8728 17.5117 15.7514 17.5593 15.6589 17.6451L11.4089 21.5451C11.1948 21.7422 10.9279 21.8728 10.6408 21.9209C10.3537 21.969 10.0588 21.9326 9.79206 21.8159C9.52533 21.6993 9.2983 21.5076 9.13865 21.2642C8.979 21.0208 8.89363 20.7362 8.89294 20.4451V4.57007C8.89294 3.90703 9.15634 3.27114 9.62518 2.8023C10.094 2.33346 10.7299 2.07007 11.3929 2.07007H20.6069C21.27 2.07007 21.9059 2.33346 22.3747 2.8023C22.8436 3.27114 23.1069 3.90703 23.1069 4.57007V20.4421C23.1094 20.7344 23.0252 21.0209 22.865 21.2654C22.7049 21.5099 22.4759 21.7015 22.2069 21.8161C22.0158 21.9009 21.8091 21.9448 21.5999 21.9451ZM15.9999 16.5101C16.3769 16.5092 16.7403 16.6502 17.0179 16.9051L21.2689 20.8051C21.3404 20.871 21.4295 20.9146 21.5254 20.9307C21.6213 20.9467 21.7198 20.9345 21.8088 20.8954C21.8978 20.8564 21.9735 20.7922 22.0267 20.7108C22.0798 20.6294 22.108 20.5343 22.1079 20.4371V4.57007C22.1079 4.17224 21.9499 3.79071 21.6686 3.50941C21.3873 3.2281 21.0058 3.07007 20.6079 3.07007H11.3929C10.9951 3.07007 10.6136 3.2281 10.3323 3.50941C10.051 3.79071 9.89294 4.17224 9.89294 4.57007V20.4421C9.89285 20.5393 9.9211 20.6344 9.97424 20.7158C10.0274 20.7972 10.1031 20.8614 10.1921 20.9004C10.2811 20.9395 10.3796 20.9517 10.4755 20.9357C10.5714 20.9196 10.6605 20.876 10.7319 20.8101L14.9829 16.9001C15.2611 16.6472 15.6241 16.508 15.9999 16.5101Z" fill="#333333"/>
<path d="M14.9844 29.0801V37.8496H14.0566V32.9863H12.25V32.2246H14.0566V29.0801H14.9844ZM10.8047 31.541C10.8047 33.0254 11.7324 34.6172 13.0801 35.2129L12.5234 35.9551C11.5127 35.4668 10.7314 34.4463 10.3457 33.25C9.95508 34.5244 9.15918 35.6133 8.14844 36.1309L7.58203 35.4082C8.91992 34.7734 9.85742 33.1133 9.86719 31.541V30.7207H7.93359V29.959H12.748V30.7207H10.8047V31.541ZM19.3789 30.6914C19.3789 31.8047 20.1504 32.8203 21.4785 33.2402L21.0391 33.9629C20.043 33.6455 19.3154 32.9863 18.9297 32.1562C18.5488 33.1133 17.7822 33.8701 16.7324 34.2363L16.2539 33.4941C17.6211 33.0449 18.4414 31.9121 18.4512 30.7012V30.457H16.5273V29.7051H21.2637V30.457H19.3789V30.6914ZM23.1973 29.0801V31.248H24.4668V32.0098H23.1973V34.334H22.2695V29.0801H23.1973ZM20.375 34.5488C22.1816 34.5488 23.2754 35.1445 23.2754 36.1699C23.2754 37.2051 22.1816 37.8203 20.375 37.8105C18.5488 37.8203 17.4355 37.2051 17.4355 36.1699C17.4355 35.1445 18.5488 34.5488 20.375 34.5488ZM20.375 35.2812C19.1055 35.2812 18.3535 35.6035 18.3633 36.1699C18.3535 36.7559 19.1055 37.0781 20.375 37.0781C21.6348 37.0781 22.3672 36.7559 22.3672 36.1699C22.3672 35.6035 21.6348 35.2812 20.375 35.2812Z" fill="#333333"/>
</svg>
