<svg width="24" height="24" viewBox="0 0 24 24" fill="none" xmlns="http://www.w3.org/2000/svg">
<path fill-rule="evenodd" clip-rule="evenodd" d="M18.5 1.25C18.6989 1.25 18.8897 1.32902 19.0303 1.46967C19.171 1.61032 19.25 1.80109 19.25 2V4.75H22C22.1989 4.75 22.3897 4.82902 22.5303 4.96967C22.671 5.11032 22.75 5.30109 22.75 5.5C22.75 5.69891 22.671 5.88968 22.5303 6.03033C22.3897 6.17098 22.1989 6.25 22 6.25H19.25V9C19.25 9.19891 19.171 9.38968 19.0303 9.53033C18.8897 9.67098 18.6989 9.75 18.5 9.75C18.3011 9.75 18.1103 9.67098 17.9697 9.53033C17.829 9.38968 17.75 9.19891 17.75 9V6.25H15C14.8011 6.25 14.6103 6.17098 14.4697 6.03033C14.329 5.88968 14.25 5.69891 14.25 5.5C14.25 5.30109 14.329 5.11032 14.4697 4.96967C14.6103 4.82902 14.8011 4.75 15 4.75H17.75V2C17.75 1.80109 17.829 1.61032 17.9697 1.46967C18.1103 1.32902 18.3011 1.25 18.5 1.25Z" fill="#555555"/>
<path fill-rule="evenodd" clip-rule="evenodd" d="M12 1.25H11.943C9.634 1.25 7.825 1.25 6.413 1.44C4.969 1.634 3.829 2.04 2.934 2.934C2.039 3.829 1.634 4.969 1.44 6.414C1.25 7.825 1.25 9.634 1.25 11.943V12.057C1.25 14.366 1.25 16.175 1.44 17.587C1.634 19.031 2.04 20.171 2.934 21.066C3.829 21.961 4.969 22.366 6.414 22.56C7.825 22.75 9.634 22.75 11.943 22.75H12.057C14.366 22.75 16.175 22.75 17.587 22.56C19.031 22.366 20.171 21.96 21.066 21.066C21.961 20.171 22.366 19.031 22.56 17.586C22.75 16.175 22.75 14.366 22.75 12.057V12C22.75 11.8011 22.671 11.6103 22.5303 11.4697C22.3897 11.329 22.1989 11.25 22 11.25C21.8011 11.25 21.6103 11.329 21.4697 11.4697C21.329 11.6103 21.25 11.8011 21.25 12C21.25 14.378 21.248 16.086 21.074 17.386L21.052 17.538L18.278 15.041C17.6469 14.4732 16.8419 14.1363 15.9945 14.0854C15.1471 14.0346 14.3075 14.2727 13.613 14.761L13.315 14.971C13.0742 15.1399 12.7815 15.2184 12.4885 15.1928C12.1955 15.1672 11.9209 15.0391 11.713 14.831L7.423 10.541C6.87576 9.99398 6.14108 9.67539 5.36774 9.64977C4.59441 9.62414 3.84024 9.8934 3.258 10.403L2.751 10.846C2.756 9.054 2.781 7.693 2.926 6.614C3.098 5.335 3.426 4.564 3.995 3.994C4.565 3.425 5.335 3.098 6.614 2.926C7.914 2.752 9.622 2.75 12 2.75C12.1989 2.75 12.3897 2.67098 12.5303 2.53033C12.671 2.38968 12.75 2.19891 12.75 2C12.75 1.80109 12.671 1.61032 12.5303 1.46967C12.3897 1.32902 12.1989 1.25 12 1.25ZM2.926 17.386C3.098 18.665 3.426 19.436 3.995 20.006C4.565 20.575 5.335 20.902 6.614 21.074C7.914 21.248 9.622 21.25 12 21.25C14.378 21.25 16.086 21.248 17.386 21.074C18.665 20.902 19.436 20.574 20.006 20.005C20.2568 19.7546 20.4613 19.4617 20.61 19.14C20.5708 19.115 20.5334 19.0872 20.498 19.057L17.275 16.157C16.8965 15.8158 16.4134 15.6131 15.9047 15.5822C15.3961 15.5514 14.892 15.6941 14.475 15.987L14.178 16.197C13.6484 16.5693 13.0044 16.7429 12.3594 16.6871C11.7144 16.6313 11.1098 16.3497 10.652 15.892L6.362 11.602C6.08386 11.3239 5.71041 11.162 5.31732 11.149C4.92423 11.136 4.5409 11.2729 4.245 11.532L2.75 12.84C2.753 14.788 2.773 16.245 2.926 17.386Z" fill="#555555"/>
</svg>
