<svg width="24" height="24" viewBox="0 0 24 24" fill="none" xmlns="http://www.w3.org/2000/svg">
<path fill-rule="evenodd" clip-rule="evenodd" d="M11.5 19.1998L12.0753 19.7646C11.9998 19.8392 11.91 19.8984 11.8113 19.9388C11.7125 19.9792 11.6066 20 11.4996 20C11.3926 20 11.2867 19.9792 11.1879 19.9388C11.0891 19.8984 10.9994 19.8392 10.9239 19.7646L10.9191 19.759L10.9052 19.7454L10.8549 19.695C10.5685 19.4044 10.2868 19.1095 10.0099 18.8102C9.31496 18.0599 8.64931 17.2839 8.01437 16.4838C7.28962 15.5638 6.54862 14.5238 5.98556 13.4967C5.43469 12.4895 5 11.3983 5 10.3999C5 6.76876 7.9185 4 11.5 4C15.0815 4 18 6.76876 18 10.3999C18 11.3983 17.5653 12.4895 17.0144 13.4959C16.4514 14.5246 15.7112 15.5638 14.9856 16.4838C14.0974 17.6031 13.1492 18.675 12.1451 19.695L12.0948 19.7454L12.0809 19.759L12.0761 19.7638L11.5 19.1998ZM11.5 12.7999C12.1465 12.7999 12.7665 12.547 13.2236 12.0969C13.6807 11.6469 13.9375 11.0364 13.9375 10.3999C13.9375 9.7634 13.6807 9.15296 13.2236 8.70288C12.7665 8.25279 12.1465 7.99994 11.5 7.99994C10.8535 7.99994 10.2335 8.25279 9.77643 8.70288C9.31931 9.15296 9.0625 9.7634 9.0625 10.3999C9.0625 11.0364 9.31931 11.6469 9.77643 12.0969C10.2335 12.547 10.8535 12.7999 11.5 12.7999Z" fill="#111111"/>
</svg>
