<svg width="24" height="24" viewBox="0 0 24 24" fill="none" xmlns="http://www.w3.org/2000/svg">
<path d="M17.6001 21.9451C17.2249 21.9446 16.8639 21.8016 16.5901 21.5451L12.3391 17.6451C12.2466 17.5593 12.1252 17.5117 11.9991 17.5117C11.873 17.5117 11.7515 17.5593 11.6591 17.6451L7.40907 21.5451C7.19491 21.7422 6.928 21.8728 6.6409 21.9209C6.3538 21.969 6.0589 21.9326 5.79218 21.8159C5.52545 21.6993 5.29842 21.5076 5.13877 21.2642C4.97912 21.0208 4.89375 20.7362 4.89307 20.4451V4.57007C4.89307 3.90703 5.15646 3.27114 5.6253 2.8023C6.09414 2.33346 6.73003 2.07007 7.39307 2.07007H16.6071C17.2701 2.07007 17.906 2.33346 18.3748 2.8023C18.8437 3.27114 19.1071 3.90703 19.1071 4.57007V20.4421C19.1095 20.7344 19.0253 21.0209 18.8652 21.2654C18.705 21.5099 18.476 21.7015 18.2071 21.8161C18.0159 21.9009 17.8092 21.9448 17.6001 21.9451ZM12.0001 16.5101C12.377 16.5092 12.7404 16.6502 13.0181 16.9051L17.2691 20.8051C17.3405 20.871 17.4296 20.9146 17.5255 20.9307C17.6214 20.9467 17.7199 20.9345 17.8089 20.8954C17.8979 20.8564 17.9736 20.7922 18.0268 20.7108C18.0799 20.6294 18.1082 20.5343 18.1081 20.4371V4.57007C18.1081 4.17224 17.95 3.79071 17.6687 3.50941C17.3874 3.2281 17.0059 3.07007 16.6081 3.07007H7.39307C6.99524 3.07007 6.61371 3.2281 6.33241 3.50941C6.0511 3.79071 5.89307 4.17224 5.89307 4.57007V20.4421C5.89298 20.5393 5.92122 20.6344 5.97436 20.7158C6.02749 20.7972 6.1032 20.8614 6.19223 20.9004C6.28125 20.9395 6.37973 20.9517 6.47561 20.9357C6.57149 20.9196 6.66061 20.876 6.73207 20.8101L10.9831 16.9001C11.2612 16.6472 11.6242 16.508 12.0001 16.5101Z" fill="#FF6B35"/>
<path d="M6 3H18L19 18.4L18 21.5L12.5385 16.8571L6 21.5L5.5 18.4V6.5L6 3Z" fill="#FF6B35"/>
</svg>
