<svg width="272" height="38" viewBox="0 0 272 38" fill="none" xmlns="http://www.w3.org/2000/svg">
<rect x="0.5" y="0.5" width="271" height="37" rx="18.5" stroke="#EDEDED"/>
<path d="M47.4219 13.4961V23.9961H46.3555V18.5234H45.0547V23.4805H44V13.6953H45.0547V17.6094H46.3555V13.4961H47.4219ZM42.8164 14.6797V21.2305H38.7383V14.6797H42.8164ZM39.793 15.5586V20.3398H41.7734V15.5586H39.793ZM52.0658 15.4297C52.0658 16.7656 52.9916 17.9844 54.5853 18.4883L54.058 19.3555C52.8627 18.9746 51.9896 18.1836 51.5267 17.1875C51.0697 18.3359 50.1498 19.2441 48.89 19.6836L48.3158 18.793C49.9564 18.2539 50.9408 16.8945 50.9525 15.4414V15.1484H48.6439V14.2461H54.3275V15.1484H52.0658V15.4297ZM56.6478 13.4961V16.0977H58.1713V17.0117H56.6478V19.8008H55.5345V13.4961H56.6478ZM53.2611 20.0586C55.4291 20.0586 56.7416 20.7734 56.7416 22.0039C56.7416 23.2461 55.4291 23.9844 53.2611 23.9727C51.0697 23.9844 49.7338 23.2461 49.7338 22.0039C49.7338 20.7734 51.0697 20.0586 53.2611 20.0586ZM53.2611 20.9375C51.7377 20.9375 50.8353 21.3242 50.847 22.0039C50.8353 22.707 51.7377 23.0938 53.2611 23.0938C54.7728 23.0938 55.6517 22.707 55.6517 22.0039C55.6517 21.3242 54.7728 20.9375 53.2611 20.9375ZM67.1628 13.4961V19.6953H66.0495V18.1367H63.7644V18.9922H58.8894V14.2812H63.7644V15.1484H66.0495V13.4961H67.1628ZM59.9909 15.1719V18.1016H62.6745V15.1719H59.9909ZM63.6472 19.9883C65.8503 19.9883 67.198 20.7148 67.198 21.9922C67.198 23.2578 65.8503 23.9844 63.6472 23.9727C61.4441 23.9844 60.0847 23.2578 60.0964 21.9922C60.0847 20.7148 61.4441 19.9883 63.6472 19.9883ZM63.6472 20.8438C62.112 20.8555 61.198 21.2539 61.198 21.9922C61.198 22.6953 62.112 23.1172 63.6472 23.1172C65.1823 23.1172 66.0964 22.6953 66.0964 21.9922C66.0964 21.2539 65.1823 20.8555 63.6472 20.8438ZM63.7644 17.2344H66.0495V16.0391H63.7644V17.2344ZM73.2013 13.6719C75.5684 13.6719 76.9513 14.3047 76.9513 15.4766C76.9513 16.6484 75.5684 17.293 73.2013 17.293C70.8341 17.293 69.4513 16.6484 69.4513 15.4766C69.4513 14.3047 70.8341 13.6719 73.2013 13.6719ZM73.2013 14.4922C71.5255 14.4922 70.5997 14.8555 70.6114 15.4766C70.5997 16.1211 71.5255 16.4609 73.2013 16.4609C74.877 16.4609 75.8028 16.1211 75.8028 15.4766C75.8028 14.8555 74.877 14.4922 73.2013 14.4922ZM77.9942 17.9375V18.8281H68.42V17.9375H77.9942ZM76.7872 19.6367V22.0977H70.67V23.0352H77.0802V23.8906H69.5802V21.2891H75.6856V20.4688H69.5684V19.6367H76.7872ZM89.7078 13.4961V19.1328H88.5945V13.4961H89.7078ZM83.9305 19.6367V20.8203H88.6063V19.6367H89.7078V23.8672H82.8406V19.6367H83.9305ZM83.9305 22.9531H88.6063V21.6992H83.9305V22.9531ZM84.0125 13.9766C85.618 13.9766 86.8016 14.9727 86.8016 16.4141C86.8016 17.8555 85.618 18.8516 84.0125 18.8398C82.407 18.8516 81.2117 17.8555 81.2117 16.4141C81.2117 14.9727 82.407 13.9766 84.0125 13.9766ZM84.0125 14.9141C83.0164 14.9023 82.3016 15.5234 82.3016 16.4141C82.3016 17.3164 83.0164 17.9258 84.0125 17.9258C84.9969 17.9258 85.7117 17.3164 85.7117 16.4141C85.7117 15.5234 84.9969 14.9023 84.0125 14.9141ZM96.0158 14.1289V17.1875H92.547V18.6406C94.3752 18.6465 95.3713 18.6055 96.5548 18.3828L96.6603 19.2852C95.383 19.5078 94.3048 19.543 92.2072 19.543H91.4455V16.3438H94.9025V15.0195H91.4338V14.1289H96.0158ZM99.7658 13.5078V19.9648H98.6525V18.1133H96.6838V17.2227H98.6525V15.9219H96.6838V15.0312H98.6525V13.5078H99.7658ZM99.7658 20.4922V24.0078H98.6525V21.3945H92.6408V20.4922H99.7658ZM106.214 15.2305V16.1328H101V15.2305H103.062V13.8008H104.164V15.2305H106.214ZM103.613 16.7656C104.949 16.7656 105.886 17.7617 105.898 19.1797C105.886 20.6094 104.949 21.6172 103.613 21.6172C102.3 21.6172 101.328 20.6094 101.339 19.1797C101.328 17.7617 102.3 16.7656 103.613 16.7656ZM103.613 17.6914C102.851 17.6914 102.324 18.3125 102.324 19.1797C102.324 20.0703 102.851 20.668 103.613 20.668C104.363 20.668 104.914 20.0703 104.914 19.1797C104.914 18.3125 104.363 17.6914 103.613 17.6914ZM110.011 13.4961V23.9961H108.957V18.7812H107.75V23.5039H106.695V13.7305H107.75V17.8672H108.957V13.4961H110.011ZM120.608 19.4141V20.3164H116.343V23.9844H115.253V20.3164H111.034V19.4141H120.608ZM119.706 14.1172V15.0078H116.46C116.477 16.3086 118.095 17.4688 120.081 17.7383L119.671 18.6172C117.948 18.3477 116.46 17.498 115.827 16.2969C115.177 17.498 113.694 18.3477 111.995 18.6172L111.573 17.7383C113.536 17.4688 115.153 16.3086 115.194 15.0078H111.925V14.1172H119.706ZM124.244 16.3672C124.244 18.043 124.948 19.8359 126.354 20.6914L125.733 21.5469C124.748 20.9551 124.08 19.9062 123.729 18.6875C123.336 20.0234 122.615 21.1602 121.596 21.7812L120.905 20.9492C122.393 20.0586 123.166 18.207 123.166 16.4141V14.457H124.244V16.3672ZM130.08 13.4961V23.9961H129.014V13.4961H130.08ZM127.901 13.6953V23.4805H126.846V18.1133H125.217V17.1875H126.846V13.6953H127.901ZM140.666 21.7578V22.6836H131.056V21.7578H133.353V19.0156C132.492 18.541 131.97 17.7852 131.97 16.8477C131.97 15.1953 133.588 14.1055 135.838 14.1055C138.099 14.1055 139.716 15.1953 139.716 16.8477C139.716 17.7734 139.213 18.5176 138.369 18.9922V21.7578H140.666ZM135.838 14.9961C134.185 14.9961 133.048 15.7109 133.048 16.8477C133.048 17.9727 134.185 18.7109 135.838 18.7109C137.478 18.7109 138.638 17.9727 138.638 16.8477C138.638 15.7109 137.478 14.9961 135.838 14.9961ZM134.455 21.7578H137.244V19.4141C136.816 19.5254 136.341 19.5781 135.838 19.5781C135.345 19.5781 134.877 19.5254 134.455 19.4258V21.7578Z" fill="#A2A2A2"/>
<path fill-rule="evenodd" clip-rule="evenodd" d="M23.2336 21.0317C24.0073 19.9975 24.3579 18.7075 24.2141 17.424C24.0703 16.1406 23.443 14.9601 22.4597 14.1227C21.4765 13.2854 20.2112 12.8541 18.9212 12.9165C17.6312 12.979 16.4135 13.5306 15.5157 14.459C14.6172 15.3881 14.1067 16.6248 14.0884 17.9172C14.07 19.2096 14.5452 20.4603 15.417 21.4145C16.2888 22.3688 17.4916 22.9547 18.7804 23.0528C20.0691 23.151 21.3468 22.754 22.3531 21.9429L22.3809 21.971L25.1202 24.6169C25.1802 24.6748 25.251 24.7204 25.3286 24.751C25.4062 24.7815 25.4891 24.7965 25.5725 24.7951C25.6559 24.7936 25.7382 24.7757 25.8147 24.7425C25.8911 24.7092 25.9603 24.6612 26.0183 24.6012C26.0762 24.5412 26.1218 24.4704 26.1523 24.3928C26.1829 24.3152 26.1979 24.2323 26.1964 24.1489C26.195 24.0655 26.1771 23.9833 26.1439 23.9068C26.1106 23.8303 26.0626 23.7611 26.0026 23.7031L23.2627 21.0579L23.2336 21.0317ZM21.8147 15.2474C22.1792 15.5937 22.4715 16.0087 22.6748 16.4686C22.8781 16.9284 22.9883 17.4239 22.9991 17.9266C23.01 18.4292 22.9212 18.9291 22.7378 19.3972C22.5545 19.8654 22.2803 20.2926 21.9311 20.6543C21.5818 21.0159 21.1644 21.3049 20.703 21.5044C20.2415 21.7039 19.7451 21.8101 19.2423 21.8169C18.7396 21.8236 18.2405 21.7307 17.7739 21.5436C17.3072 21.3565 16.8823 21.0788 16.5235 20.7266C15.8064 20.0228 15.3965 19.0642 15.3831 18.0595C15.3696 17.0549 15.7537 16.0856 16.4517 15.3629C17.1496 14.6401 18.1049 14.2224 19.1094 14.2008C20.1139 14.1792 21.0863 14.5554 21.8147 15.2474Z" fill="#A2A2A2"/>
</svg>
