<svg width="27" height="15" viewBox="0 0 27 15" fill="none" xmlns="http://www.w3.org/2000/svg">
<path d="M13.2969 6.90625V8.125H0.515625V6.90625H13.2969ZM11.8125 4.48438V5.6875H2.10938V0.828125H11.7188V2.04688H3.57812V4.48438H11.8125ZM6.89062 9.21875C9.90625 9.21875 11.7188 10.1406 11.7188 11.7656C11.7188 13.3906 9.90625 14.3125 6.89062 14.2969C3.85938 14.3125 2.03125 13.3906 2.03125 11.7656C2.03125 10.1406 3.85938 9.21875 6.89062 9.21875ZM6.89062 10.3594C4.75 10.375 3.53125 10.875 3.53125 11.7656C3.53125 12.6562 4.75 13.1562 6.89062 13.1562C9 13.1562 10.2344 12.6562 10.2344 11.7656C10.2344 10.875 9 10.375 6.89062 10.3594ZM26.6606 7.96875V9.17188H13.8481V7.96875H19.52V6.64062H15.4888V3.07812H23.5669V1.82812H15.4575V0.65625H25.0513V4.17188H16.9575V5.48438H25.3325V6.64062H20.9888V7.96875H26.6606ZM25.1294 10.1562V14.2188H23.6294V11.3438H15.2856V10.1562H25.1294Z" fill="#A2A2A2"/>
</svg>
