<svg width="24" height="24" viewBox="0 0 24 24" fill="none" xmlns="http://www.w3.org/2000/svg">
<path fill-rule="evenodd" clip-rule="evenodd" d="M18.515 6.19504C18.6463 6.06375 18.7201 5.8857 18.7201 5.70004C18.7201 5.51437 18.6463 5.33632 18.515 5.20504C18.3838 5.07375 18.2057 5 18.02 5C17.8344 5 17.6563 5.07375 17.525 5.20504L11.86 10.87L6.19504 5.20504C6.06375 5.07375 5.8857 5 5.70004 5C5.51437 5 5.33632 5.07375 5.20504 5.20504C5.07375 5.33632 5 5.51437 5 5.70004C5 5.8857 5.07375 6.06375 5.20504 6.19504L10.87 11.86L5.20504 17.525C5.07375 17.6563 5 17.8344 5 18.02C5 18.2057 5.07375 18.3838 5.20504 18.515C5.33632 18.6463 5.51437 18.7201 5.70004 18.7201C5.8857 18.7201 6.06375 18.6463 6.19504 18.515L11.86 12.85L17.525 18.515C17.6563 18.6463 17.8344 18.7201 18.02 18.7201C18.2057 18.7201 18.3838 18.6463 18.515 18.515C18.6463 18.3838 18.7201 18.2057 18.7201 18.02C18.7201 17.8344 18.6463 17.6563 18.515 17.525L12.85 11.86L18.515 6.19504Z" fill="#111111"/>
</svg>
